<svg width="32" height="32" viewBox="0 0 32 32" fill="none" xmlns="http://www.w3.org/2000/svg">
<path d="M16,1C7.729,1 1,7.729 1,16C1,24.271 7.729,31 16,31C24.271,31 31,24.271 31,16C31,7.729 24.271,1 16,1ZM22.313,22.636C22.688,20.933 22.915,19.036 22.973,17L28.959,17C28.766,19.515 27.854,21.829 26.429,23.741C25.08,23.28 23.705,22.912 22.313,22.636ZM5.571,23.741C4.146,21.829 3.234,19.515 3.041,17L9.027,17C9.085,19.036 9.312,20.933 9.687,22.636C8.296,22.912 6.92,23.28 5.571,23.74L5.571,23.741ZM9.686,9.37C9.312,11.071 9.085,12.967 9.027,15L3.041,15C3.234,12.485 4.145,10.171 5.571,8.259C6.922,8.721 8.295,9.091 9.686,9.369L9.686,9.37ZM11.659,9.708C13.092,9.902 14.541,10 16,10C17.459,10 18.908,9.902 20.341,9.708C20.692,11.267 20.919,13.051 20.979,15L11.021,15C11.081,13.051 11.308,11.267 11.659,9.708ZM11.021,17L20.978,17C20.918,18.953 20.691,20.739 20.339,22.3C17.462,21.912 14.539,21.913 11.661,22.3C11.309,20.739 11.081,18.952 11.022,17L11.021,17ZM22.972,15C22.915,12.967 22.688,11.071 22.313,9.37C23.704,9.092 25.078,8.722 26.428,8.26C27.853,10.172 28.765,12.486 28.958,15L22.972,15ZM24.98,6.629C23.936,6.953 22.877,7.219 21.807,7.426C21.342,5.952 20.758,4.678 20.076,3.665C21.931,4.28 23.598,5.307 24.979,6.629L24.98,6.629ZM15.999,3C17.362,3 18.812,4.78 19.798,7.749C17.277,8.066 14.722,8.066 12.2,7.749C13.186,4.78 14.636,3 15.999,3ZM10.19,7.426C9.121,7.218 8.062,6.953 7.017,6.629C8.398,5.307 10.065,4.28 11.92,3.665C11.238,4.678 10.654,5.952 10.189,7.426L10.19,7.426ZM7.018,25.372C8.062,25.048 9.121,24.783 10.19,24.575C10.654,26.049 11.239,27.322 11.92,28.335C10.065,27.72 8.399,26.693 7.018,25.372ZM15.999,29C14.636,29 13.186,27.22 12.2,24.252C14.722,23.935 17.277,23.935 19.798,24.252C18.812,27.221 17.362,29.001 15.999,29.001L15.999,29ZM21.808,24.574C22.877,24.782 23.936,25.048 24.981,25.371C23.6,26.693 21.933,27.72 20.078,28.335C20.76,27.322 21.344,26.048 21.809,24.574L21.808,24.574Z" fill="white"/>
</svg>
